<svg xmlns="http://www.w3.org/2000/svg" xml:space="preserve" x="0px" y="0px" viewBox="0 0 600 75"><path d="M130.6 54.5H599m-599 0h89.3m33.1-6.5c1.9-1.7 1.6-4.9 1.7-7.2-.1-.7 0-1.2-.2-1.4-4.5 2.5-8.9 11.7-9.1 12.3.8-.3 5.5-2 7.6-3.7zm-21.6 5c2.6.6 7.6.1 8.4 0-.4-.4-8.4-6.8-13.5-7.1-.1.3.2.7.5 1.4 1 2 2.1 5 4.6 5.7zm22.6-1.5c1.2.6 2.8 1.6 4.2 2.7.3-.5.7-1 1-1.4-.6-2-1.2-4-1.7-5-1.1 1.3-2.2 2.6-3.5 3.7zm7.2-10.4c.6.7 1.1 1.6 1.5 2.6.2-1 .3-2 .4-3l-1.8.3zm-26.9 22.4c2 .7 4 1 6.1 1 .1-2-.8-5.3-1.3-6.8-1 1.6-3.3 4.3-4.8 5.8zm14.4-8.4c-.4.2-.8.4-1.3.6 1.1 1.4 2.5 3.6 3.2 5.8.4-.2.8-.5 1.1-.7.5-1.9.9-4.3.9-6.3 0-.8-.1-1.3-.2-1.7-1 .8-2.3 1.6-3.7 2.3zm9.7-8.6c.9.1 2.2.2 3.4.6.2-.6.4-1.2.5-1.8-.4-1.2-.9-2.4-1.5-3.3-.6 1.6-1.5 3.1-2.4 4.5zm1.4 5.2c.7-1.2 1.2-2.4 1.7-3.7-1.2-.4-2.4-.5-3.3-.6.5.9 1.1 2.3 1.6 4.3zm3.4-13-1-.8c-.2.7-.4 1.4-.6 2l1.5-.3v-.7c.1 0 .1-.1.1-.2zm-.1-1.3c-.1-1-.2-2-.3-2.9-.1.8-.2 1.6-.4 2.4l.7.5q0 .15 0 0zM90.4 51.9c.4.7.8 1.4 1.3 2 .2.3.4.5.6.8.1.1.2.3.3.4.5-.2 1-.5 1.4-.8q-1.95-1.05-3.6-2.4zM116 56c-.1 2.1-2.4 6-4.1 8.4 2.3-.3 4.6-1 6.9-2.3.2-.1.3-.2.4-.3-.6-2.2-2.2-4.6-3.2-5.8zm-21.2-1.2c-.5.4-1.1.8-1.7 1.1.8 1 1.6 1.8 2.5 2.7.1-1.1 0-2.4-.1-3.4-.2-.2-.5-.3-.7-.4zm27.5 5.1c1.8-1.4 3.4-3.1 4.8-4.9-1.5-1.2-3.2-2.2-4.3-2.8.6 1.7.1 5-.5 7.7zM100 56.8c-1.2-.3-2.4-.7-3.5-1.2.1 1.2.1 2.6-.1 3.7.2.2.4.3.5.4 1.1-.8 2.4-2 3.1-2.9zm7.4.9h-.6c-1.5 0-3-.1-4.5-.4.5 1.7.8 4.1.5 5.8 1.4-1.3 3.6-4 4.6-5.4zM101 57c-.7 1-2.1 2.4-3.3 3.3 1.3 1 2.8 1.9 4.3 2.5.3-1.6-.2-4.3-.6-5.7-.2 0-.3-.1-.4-.1zm8.3.5c.6 1.7 1.4 4.9 1.3 7 1.5-2.1 4.1-6.2 4.4-8.2q-2.7 1.05-5.7 1.2z" style="fill:none;stroke:#8690a1;stroke-width:.5;stroke-miterlimit:10"/></svg>